<svg width="11" height="17" viewBox="0 0 11 17" fill="none" xmlns="http://www.w3.org/2000/svg">
<path opacity="0.3" d="M6.49886 5.28947C7.2009 5.72133 7.74472 6.18874 8.37805 6.42086C10.3861 7.15684 10.95 8.75364 10.9977 10.5973C11.0773 13.5209 9.10281 16.1161 6.2245 16.8711C4.28956 17.4112 1.65376 16.1888 0.718018 14.422C-0.257917 12.5795 -0.12021 10.6446 0.427885 8.76953C0.940824 6.94071 1.79694 5.22193 2.95228 3.70144C4.51122 1.68843 6.65448 0.645998 9.07542 0.0370331C9.16357 0.00280333 9.25937 -0.00795844 9.35312 0.00583649C9.77297 0.148128 10.3638 0.193288 10.5628 0.488281C10.9096 1.00226 10.3157 1.3009 9.94683 1.5432C8.50261 2.49627 7.31868 3.78263 6.49886 5.28947Z" fill="#F37324"/>
</svg>
